<svg width="48" height="48" viewBox="0 0 48 48" fill="none" xmlns="http://www.w3.org/2000/svg">
<path d="M24 12.0417C21.6349 12.0417 19.3228 12.7431 17.3564 14.0571C15.3898 15.371 13.8571 17.2387 12.952 19.4238C12.0469 21.6089 11.8101 24.0134 12.2715 26.333C12.7329 28.6527 13.8718 30.7836 15.5442 32.456C17.2166 34.1281 19.3473 35.2671 21.667 35.7285C23.9869 36.1899 26.3911 35.9531 28.5763 35.048C30.7614 34.143 32.629 32.6103 33.9429 30.6439C35.2572 28.6772 35.9583 26.3651 35.9583 24C35.9621 22.4285 35.6556 20.8719 35.0559 19.4194C34.4563 17.9666 33.5757 16.6469 32.4645 15.5357C31.3532 14.4244 30.0334 13.5438 28.5809 12.9441C27.1281 12.3446 25.5715 12.0379 24 12.0417ZM24 31.7875C22.4597 31.7875 20.9541 31.3308 19.6734 30.475C18.393 29.6195 17.3947 28.4033 16.8053 26.9803C16.2159 25.5572 16.0617 23.9915 16.3622 22.4807C16.6627 20.9702 17.4043 19.5824 18.4933 18.4933C19.5824 17.4043 20.9702 16.6627 22.4807 16.3622C23.9915 16.0617 25.5572 16.2159 26.9803 16.8053C28.4033 17.3947 29.6195 18.393 30.475 19.6734C31.3308 20.9541 31.7875 22.4597 31.7875 24C31.7875 26.0653 30.967 28.0463 29.5067 29.5067C28.0463 30.967 26.0653 31.7875 24 31.7875ZM39.2542 11.5459C39.2542 12.1228 39.0833 12.6867 38.7627 13.1663C38.4422 13.6459 37.9866 14.0198 37.4537 14.2405C36.9208 14.4613 36.3343 14.519 35.7685 14.4065C35.2026 14.2939 34.6832 14.0162 34.2751 13.6083C33.8674 13.2004 33.5894 12.6807 33.4768 12.1149C33.3643 11.5491 33.422 10.9627 33.6428 10.4297C33.8636 9.89678 34.2375 9.44126 34.717 9.12077C35.1968 8.80026 35.7606 8.6292 36.3375 8.6292C37.111 8.6292 37.853 8.9365 38.3999 9.48349C38.947 10.0305 39.2542 10.7723 39.2542 11.5459ZM47.1583 14.4625C47.2432 10.8366 45.8908 7.32428 43.3958 4.6917C40.7773 2.16496 37.2633 0.780333 33.625 0.841699C29.8333 0.666699 18.1667 0.666699 14.375 0.841699C10.7502 0.763212 7.24022 2.11485 4.6042 4.6042C2.1094 7.23678 0.756883 10.7491 0.841699 14.375C0.666699 18.1667 0.666699 29.8333 0.841699 33.625C0.756883 37.251 2.1094 40.7633 4.6042 43.3958C7.24022 45.8852 10.7502 47.2368 14.375 47.1583C18.225 47.3917 29.775 47.3917 33.625 47.1583C37.251 47.2432 40.7633 45.8908 43.3958 43.3958C45.8908 40.7633 47.2432 37.251 47.1583 33.625C47.3333 29.8333 47.3333 18.1667 47.1583 14.375V14.4625ZM42.2 37.7958C41.8039 38.7992 41.2063 39.71 40.4436 40.4728C39.6809 41.2355 38.77 41.8331 37.7667 42.2292C33.2388 43.1447 28.6101 43.4585 24 43.1625C19.3998 43.4588 14.7805 43.145 10.2625 42.2292C9.2594 41.8331 8.34827 41.2355 7.58567 40.4728C6.82305 39.71 6.22522 38.7992 5.8292 37.7958C4.6042 34.7042 4.8667 27.4125 4.8667 24.0292C4.8667 20.6458 4.6042 13.325 5.8292 10.2625C6.21405 9.24949 6.80762 8.32869 7.57138 7.55989C8.33514 6.79112 9.25202 6.19151 10.2625 5.80003C14.7805 4.88414 19.3998 4.57031 24 4.8667C28.6101 4.5708 33.2388 4.88464 37.7667 5.80003C38.77 6.19606 39.6809 6.79389 40.4436 7.55651C41.2063 8.3191 41.8039 9.23024 42.2 10.2334C43.425 13.325 43.1333 20.6167 43.1333 24C43.1333 27.3833 43.425 34.7042 42.2 37.7667V37.7958Z" fill="white"/>
</svg>
