<svg width="50" height="50" viewBox="0 0 50 50" fill="none" xmlns="http://www.w3.org/2000/svg">
<path d="M0 50L3.54481 37.1728C1.36672 33.4098 0.222907 29.142 0.228507 24.799C0.203294 11.1137 11.3674 0 25.0883 0C31.7477 0 38.0004 2.57015 42.7084 7.2585C45.0292 9.55665 46.8685 12.2904 48.1201 15.3013C49.3718 18.3123 50.0107 21.5405 49.9999 24.799C49.9999 38.458 38.8357 49.5717 25.1134 49.5717C20.9366 49.5717 16.8605 48.5378 13.2148 46.548L0 50ZM13.7979 42.0872L14.5576 42.5405C17.7464 44.419 21.3831 45.411 25.0883 45.4135C36.4808 45.4135 45.7725 36.1655 45.7725 24.8228C45.7725 19.3294 43.6211 14.1389 39.7214 10.2585C37.804 8.33883 35.5237 6.8159 33.0124 5.77752C30.5008 4.73912 27.8076 4.2058 25.0883 4.20827C13.6703 4.20975 4.38169 13.4579 4.38169 24.8005C4.38169 28.681 5.47079 32.4875 7.54664 35.7637L8.02739 36.545L5.92632 44.155L13.7979 42.0872Z" fill="white"/>
<path fill-rule="evenodd" clip-rule="evenodd" d="M20.107 15.9286C19.7466 15.043 19.3462 15.0215 19.0058 15.0215C18.7052 15 18.3835 15 18.0431 15C17.7238 15 17.1825 15.129 16.7223 15.6692C16.2609 16.2081 15 17.482 15 20.0931C15 22.7056 16.7622 25.2306 17.0029 25.5759C17.2424 25.9213 20.4076 31.4458 25.4159 33.5837C29.5813 35.3536 30.4232 35.0082 31.3248 34.8994C32.2253 34.792 34.2294 33.6268 34.6497 32.3744C35.0501 31.1448 35.0501 30.0657 34.9302 29.8492C34.8104 29.6342 34.4689 29.5038 33.9888 29.2231C33.4875 28.9649 31.0841 27.6695 30.6239 27.4963C30.1625 27.3242 29.842 27.2381 29.5215 27.7556C29.201 28.2958 28.2594 29.4824 27.9601 29.8278C27.6784 30.1731 27.3789 30.2162 26.8976 29.9569C26.3975 29.6987 24.8148 29.1371 22.9317 27.3242C21.4689 25.92 20.4874 24.1729 20.1868 23.6556C19.9074 23.1154 20.1469 22.8345 20.4076 22.5752C20.6283 22.3386 20.9089 21.9502 21.1495 21.6479C21.389 21.3443 21.4689 21.1077 21.6497 20.7623C21.8094 20.417 21.7296 20.0931 21.6097 19.8351C21.4889 19.5972 20.5484 16.9861 20.107 15.9286Z" fill="white"/>
</svg>
